<?xml version="1.0" standalone="no"?>
<!DOCTYPE svg PUBLIC "-//W3C//DTD SVG 20010904//EN"
 "http://www.w3.org/TR/2001/REC-SVG-20010904/DTD/svg10.dtd">
<svg version="1.0" xmlns="http://www.w3.org/2000/svg"
 width="300.000000pt" height="188.000000pt" viewBox="0 0 300.000000 188.000000"
 preserveAspectRatio="xMidYMid meet">
<metadata>
Created by potrace 1.10, written by Peter Selinger 2001-2011
</metadata>
<g transform="translate(0.000000,188.000000) scale(0.100000,-0.100000)"
fill="#000000" stroke="none">
<path d="M1065 1525 c-38 -14 -74 -48 -75 -71 0 -6 -9 -23 -20 -37 -29 -36
-26 -82 6 -110 36 -30 40 -34 76 -92 37 -58 114 -150 179 -215 25 -25 51 -55
58 -67 7 -14 17 -20 26 -17 8 4 15 1 15 -5 0 -6 -6 -11 -12 -11 -7 -1 3 -9 22
-19 34 -18 67 -49 70 -63 0 -4 7 -23 15 -43 8 -19 17 -42 18 -52 7 -35 27 -74
40 -79 7 -2 35 4 61 16 26 11 56 20 66 20 19 0 93 -81 96 -107 3 -17 52 -83
63 -83 4 0 20 13 35 29 29 31 40 31 85 2 28 -18 113 -54 191 -82 30 -10 64
-23 75 -28 74 -33 232 -35 287 -3 30 17 49 55 53 105 8 89 -89 242 -260 410
-27 27 -49 53 -48 57 1 5 -7 44 -18 87 -12 43 -29 114 -38 158 -16 78 -17 81
-57 100 -22 11 -55 37 -74 58 -40 43 -127 77 -251 98 -79 13 -94 9 -210 -51
-11 -6 -33 0 -64 16 -52 26 -78 34 -195 65 -104 27 -167 31 -215 14z m273 -44
c48 -16 110 -40 137 -53 l48 -23 78 39 78 39 88 -22 c148 -37 200 -60 234
-102 16 -21 45 -43 64 -49 19 -6 35 -15 35 -18 0 -4 16 -74 35 -155 19 -82 33
-152 32 -156 -1 -3 33 -42 77 -86 147 -150 226 -274 234 -370 5 -64 -9 -92
-53 -111 -81 -33 -237 -6 -413 71 -46 20 -88 33 -95 29 -6 -4 -9 -3 -4 1 4 5
-12 20 -35 33 l-41 25 -35 -38 c-28 -31 -37 -36 -44 -24 -5 8 -24 40 -43 73
-19 32 -33 62 -30 66 7 11 -76 64 -84 53 -7 -11 -111 -56 -116 -51 -11 11 -65
173 -61 183 2 7 -27 38 -64 70 -128 106 -282 282 -320 366 -6 14 -27 34 -46
44 -25 14 -34 25 -34 45 0 14 5 31 10 36 6 6 20 30 33 54 16 32 32 48 57 57
54 20 175 9 278 -26z m17 -591 c3 -6 -1 -7 -9 -4 -18 7 -21 14 -7 14 6 0 13
-4 16 -10z"/>
<path d="M1074 1500 c-35 -11 -61 -36 -66 -65 -2 -16 2 -19 23 -17 20 2 32 -4
48 -26 31 -44 28 -80 -9 -95 l-29 -13 46 -69 c75 -112 281 -314 433 -426 175
-128 296 -200 328 -194 22 4 24 4 7 -4 -17 -8 -2 -18 95 -64 172 -82 265 -109
378 -111 91 -1 94 0 118 27 36 41 32 98 -11 183 -38 76 -133 200 -219 284
l-56 54 0 -44 c0 -25 -7 -76 -15 -115 -18 -83 -17 -78 -6 -71 5 4 13 30 17 59
4 28 9 55 10 60 1 4 2 21 3 37 1 38 14 38 48 -1 16 -17 43 -48 62 -68 51 -55
107 -133 141 -195 23 -43 30 -69 30 -111 0 -71 -18 -85 -115 -85 -80 0 -167
22 -287 74 -46 20 -89 36 -96 36 -7 0 -12 5 -12 10 0 6 -7 10 -15 10 -9 0 -26
10 -38 23 -12 13 -31 27 -42 31 -19 7 -19 8 4 27 13 10 29 19 37 19 8 0 14 5
14 10 0 15 -6 13 -50 -15 -22 -14 -44 -25 -50 -25 -5 0 -42 20 -82 45 -40 25
-66 45 -59 45 14 0 6 14 -7 15 -20 2 -52 18 -52 26 0 5 -6 9 -12 9 -7 1 -26
12 -43 26 -16 15 -24 23 -16 19 9 -6 12 -4 7 3 -4 7 -16 12 -27 12 -10 0 -27
8 -37 18 -10 10 -26 21 -35 25 -9 3 -17 10 -17 15 0 4 -31 34 -70 66 -38 32
-67 63 -63 69 3 5 1 7 -5 3 -13 -8 -134 125 -179 196 l-32 51 24 19 c34 27 33
76 -1 117 -14 17 -34 31 -45 31 -27 0 -24 16 7 36 37 25 134 22 219 -5 39 -12
77 -24 86 -26 38 -8 93 -36 82 -43 -23 -15 -123 -164 -116 -175 4 -7 11 -2 17
14 6 14 31 53 56 86 32 44 53 63 75 68 l30 6 -27 15 c-15 8 -74 30 -131 49
-110 37 -221 51 -273 35z"/>
<path d="M1801 1406 c2 -2 22 -6 44 -9 28 -5 34 -4 20 3 -19 8 -73 14 -64 6z"/>
<path d="M991 1381 c-10 -7 -11 -13 -2 -27 6 -12 11 -14 11 -5 0 11 3 11 15 1
8 -6 13 -17 12 -22 -1 -6 4 -13 11 -15 6 -3 12 0 12 6 0 6 8 8 18 5 9 -4 3 3
-15 14 -17 11 -35 27 -40 36 -5 10 -13 12 -22 7z"/>
<path d="M1788 1373 c7 -3 16 -2 19 1 4 3 -2 6 -13 5 -11 0 -14 -3 -6 -6z"/>
<path d="M1716 1350 c-21 -11 -44 -24 -51 -30 -9 -8 -14 -8 -17 0 -2 6 -21
-20 -43 -57 -21 -37 -42 -70 -45 -73 -8 -8 -6 -69 3 -67 11 3 48 -95 42 -111
-2 -7 2 -15 10 -19 9 -3 15 -10 14 -17 -1 -6 0 -29 1 -51 l3 -40 7 49 c5 43 1
63 -32 148 l-39 99 36 57 c28 46 48 64 103 94 70 39 76 52 8 18z"/>
<path d="M1921 1318 c11 -21 25 -38 30 -38 6 0 5 5 -1 13 -5 6 -19 23 -30 37
-19 23 -19 23 1 -12z"/>
<path d="M1421 1300 c-1 -14 -10 -56 -20 -93 -18 -64 -18 -67 -1 -50 10 10 16
21 14 25 -3 4 0 9 5 13 6 3 8 12 4 20 -3 8 -2 23 1 32 6 15 8 15 16 3 6 -8 10
-31 10 -50 l1 -35 13 35 c11 32 10 37 -10 60 -12 14 -24 34 -27 45 -4 17 -5
16 -6 -5z"/>
<path d="M1526 1275 c-11 -8 -15 -15 -9 -15 6 0 16 7 23 15 16 19 11 19 -14 0z"/>
<path d="M1940 1259 c0 -5 5 -7 10 -4 6 3 10 8 10 11 0 2 -4 4 -10 4 -5 0 -10
-5 -10 -11z"/>
<path d="M1952 1180 c-1 -36 -6 -81 -11 -100 -13 -52 -24 -116 -17 -110 13 13
37 166 33 218 l-3 57 -2 -65z"/>
<path d="M1500 1216 c0 -3 9 -10 20 -16 11 -6 20 -8 20 -6 0 3 -9 10 -20 16
-11 6 -20 8 -20 6z"/>
<path d="M1620 1180 c8 -5 26 -10 39 -10 32 0 24 6 -19 14 -25 4 -31 3 -20 -4z"/>
<path d="M1303 1174 c3 -4 2 -16 -4 -28 -10 -20 -10 -20 5 -2 19 24 20 36 4
36 -6 0 -8 -3 -5 -6z"/>
<path d="M1713 1163 c9 -2 23 -2 30 0 6 3 -1 5 -18 5 -16 0 -22 -2 -12 -5z"/>
<path d="M1427 1102 c-9 -34 -17 -70 -16 -79 0 -10 9 14 20 52 10 39 17 74 16
79 -2 5 -11 -19 -20 -52z"/>
<path d="M1771 1156 c2 -2 27 -6 54 -10 34 -4 45 -3 35 4 -14 9 -99 15 -89 6z"/>
<path d="M1280 1109 c0 -5 5 -7 10 -4 6 3 10 8 10 11 0 2 -4 4 -10 4 -5 0 -10
-5 -10 -11z"/>
<path d="M1892 1090 c0 -14 4 -38 8 -55 7 -27 8 -27 8 -5 0 14 -4 39 -8 55 -7
27 -8 27 -8 5z"/>
<path d="M1720 1034 c-36 -24 -59 -44 -52 -44 6 0 34 16 62 36 27 20 50 31 50
25 0 -6 6 -11 14 -11 21 0 123 -115 151 -170 14 -28 28 -50 30 -50 3 0 -10 30
-29 68 -22 42 -58 90 -98 129 l-63 61 -65 -44z"/>
<path d="M1530 1010 c14 -4 34 -8 45 -8 16 0 15 2 -5 8 -14 4 -34 8 -45 8 -16
0 -15 -2 5 -8z"/>
<path d="M2072 970 c0 -14 2 -19 5 -12 2 6 2 18 0 25 -3 6 -5 1 -5 -13z"/>
<path d="M2116 955 c-11 -8 -15 -15 -9 -15 6 0 16 7 23 15 16 19 11 19 -14 0z"/>
<path d="M1690 940 c0 -5 5 -10 11 -10 5 0 7 5 4 10 -3 6 -8 10 -11 10 -2 0
-4 -4 -4 -10z"/>
<path d="M2038 865 c-35 -52 -49 -66 -76 -71 -47 -9 -49 -23 -2 -17 36 5 40 3
40 -15 0 -16 4 -20 17 -15 12 5 15 2 11 -9 -5 -11 -1 -14 18 -10 13 2 24 0 24
-4 0 -5 11 -9 24 -9 34 0 22 13 -23 25 -49 13 -79 44 -61 64 6 9 16 14 22 13
6 -1 16 17 23 41 7 23 19 49 25 57 7 8 10 15 6 15 -3 0 -25 -29 -48 -65z"/>
<path d="M1771 863 c1 -17 3 -21 6 -10 2 9 12 17 21 17 15 0 15 2 2 10 -24 16
-30 12 -29 -17z"/>
<path d="M1633 845 c0 -8 4 -12 9 -9 5 3 6 10 3 15 -9 13 -12 11 -12 -6z"/>
<path d="M1455 812 c33 -36 132 -108 140 -101 4 5 -31 33 -135 108 l-35 25 30
-32z"/>
<path d="M1665 781 c54 -25 58 -29 37 -35 -42 -14 -17 -16 28 -3 l44 13 -74
27 c-96 35 -111 34 -35 -2z"/>
<path d="M1832 766 l-53 -11 58 -33 c47 -27 61 -31 78 -22 12 6 13 9 3 6 -9
-3 -31 2 -47 10 -53 26 -50 41 8 46 17 1 31 6 31 10 0 9 -8 9 -78 -6z"/>
<path d="M1990 660 c-6 -11 -8 -20 -6 -20 3 0 10 9 16 20 6 11 8 20 6 20 -3 0
-10 -9 -16 -20z"/>
<path d="M1700 635 c6 -8 21 -17 31 -20 16 -5 18 -10 9 -21 -10 -11 -7 -13 17
-12 15 0 39 -3 53 -7 14 -4 -4 11 -40 34 -68 42 -91 51 -70 26z"/>
</g>
</svg>
